<?xml version="1.0" encoding="UTF-8"?><svg id="a" xmlns="http://www.w3.org/2000/svg" viewBox="0 0 20 20"><path id="b" d="m9.99,15.62c.56,0,1.01-.46,1-1.02s-.46-1.01-1.02-1-1.01.46-1,1.02c0,.26.11.52.29.7.19.2.45.3.72.3m-.71-3.58h1.41c0-.4.07-.8.22-1.18.25-.44.57-.84.96-1.17.38-.37.72-.78,1.01-1.22.24-.4.36-.85.35-1.32.04-.78-.31-1.53-.92-2.02-.63-.49-1.4-.75-2.2-.73-.75-.03-1.48.21-2.07.67-.52.41-.93.96-1.17,1.57l1.28.52c.14-.36.35-.69.62-.97.35-.34.83-.51,1.31-.47.49-.04.97.14,1.31.49.27.29.42.67.42,1.07,0,.33-.1.66-.29.93-.21.3-.46.58-.74.82-.49.4-.91.88-1.25,1.42-.2.51-.29,1.05-.26,1.6m.72,7.46c-1.27,0-2.53-.25-3.7-.75-2.28-.96-4.09-2.77-5.05-5.05-.5-1.17-.76-2.43-.75-3.71,0-1.27.25-2.53.75-3.7.96-2.28,2.77-4.09,5.05-5.05,1.17-.5,2.43-.76,3.71-.75,1.27,0,2.53.25,3.7.75,2.28.96,4.09,2.77,5.05,5.05.5,1.17.76,2.43.75,3.71,0,1.27-.25,2.53-.75,3.7-.96,2.28-2.77,4.09-5.05,5.05-1.17.5-2.43.76-3.71.75m0-1.5c2.13.04,4.19-.8,5.68-2.32,1.53-1.49,2.37-3.54,2.32-5.68.04-2.13-.8-4.19-2.32-5.68-1.49-1.53-3.54-2.37-5.68-2.32-2.13-.04-4.19.8-5.67,2.33-1.53,1.49-2.37,3.54-2.33,5.67-.04,2.13.8,4.19,2.33,5.68,1.49,1.53,3.54,2.37,5.67,2.32"/></svg>