<?xml version="1.0" encoding="UTF-8"?><svg id="a" xmlns="http://www.w3.org/2000/svg" viewBox="0 0 20 20"><path d="m14.63,13.59c.49-.61.87-1.29,1.15-2.03.28-.74.42-1.53.42-2.36,0-.96-.18-1.87-.55-2.72s-.87-1.59-1.5-2.23c-.63-.63-1.38-1.13-2.23-1.5-.85-.37-1.76-.55-2.72-.55s-1.88.18-2.73.55c-.85.37-1.59.87-2.22,1.5s-1.13,1.38-1.5,2.23c-.37.85-.55,1.76-.55,2.72s.18,1.88.54,2.73c.36.85.86,1.59,1.5,2.22s1.38,1.13,2.23,1.5,1.76.55,2.73.55c.83,0,1.62-.14,2.36-.41.74-.27,1.41-.65,2.02-1.14l3.56,3.54,1.06-1.04-3.56-3.56Zm-1.55-.5c-1.08,1.07-2.37,1.6-3.89,1.6s-2.83-.53-3.9-1.6c-1.07-1.07-1.6-2.37-1.6-3.9s.53-2.82,1.6-3.89c1.07-1.07,2.37-1.61,3.9-1.61s2.82.54,3.89,1.61c1.07,1.08,1.61,2.37,1.61,3.89s-.54,2.83-1.61,3.9Z"/></svg>