<?xml version="1.0" encoding="UTF-8"?><svg id="a" xmlns="http://www.w3.org/2000/svg" viewBox="0 0 20 20"><path d="m12.67,7.73l3.52,3.52,3.52-3.52-1.06-1.06-1.67,1.67c-.07-.72-.24-1.41-.52-2.06-.37-.85-.87-1.6-1.5-2.23s-1.37-1.13-2.22-1.5c-.85-.37-1.76-.55-2.73-.55s-1.87.18-2.72.55c-.85.37-1.6.87-2.23,1.5-.63.63-1.13,1.37-1.5,2.23s-.55,1.76-.55,2.72c0,.83.14,1.62.42,2.36.28.74.66,1.42,1.15,2.03l-3.56,3.56,1.06,1.04,3.56-3.54c.61.49,1.28.87,2.02,1.14.74.27,1.52.41,2.36.41.97,0,1.88-.18,2.73-.55.61-.26,1.14-.62,1.64-1.01l-1.13-.99c-.93.69-2,1.05-3.23,1.05-1.52,0-2.81-.53-3.89-1.6-1.08-1.07-1.61-2.36-1.61-3.9s.54-2.81,1.61-3.89c1.07-1.08,2.37-1.61,3.89-1.61s2.83.54,3.9,1.61c.91.92,1.4,2.02,1.53,3.26l-1.7-1.7-1.06,1.06Z"/></svg>