<?xml version="1.0" encoding="UTF-8"?><svg id="a" xmlns="http://www.w3.org/2000/svg" viewBox="0 0 50 50"><path d="m12.94,48.37s-.06,0-.09,0l-10.72-1.94c-.13-.02-.25-.1-.32-.21-.08-.11-.1-.24-.08-.37L8.33,9.41c.02-.13.1-.25.21-.32.11-.08.24-.1.37-.08l10.72,1.94c.27.05.45.31.4.58l-6.6,36.43c-.04.24-.25.41-.49.41Zm-10.14-2.84l9.74,1.76,6.42-35.45-9.74-1.76L2.8,45.53Z"/><path d="m28.02,48.31h-7.05c-.28,0-.5-.22-.5-.5V6.13c0-.28.22-.5.5-.5h7.05c.28,0,.5.22.5.5v41.68c0,.28-.22.5-.5.5Zm-6.55-1h6.05V6.63h-6.05v40.68Z"/><path d="m37.97,48.25h-8.23c-.28,0-.5-.22-.5-.5V10.94c0-.28.22-.5.5-.5h8.23c.28,0,.5.22.5.5v36.81c0,.28-.22.5-.5.5Zm-7.73-1h7.23V11.44h-7.23v35.81Z"/><path d="m47.78,48.15h-8.23c-.28,0-.5-.22-.5-.5V10.83c0-.28.22-.5.5-.5h8.23c.28,0,.5.22.5.5v36.81c0,.28-.22.5-.5.5Zm-7.73-1h7.23V11.33h-7.23v35.81Z"/><path d="m26.27,13.13h-3.56c-.28,0-.5-.22-.5-.5s.22-.5.5-.5h3.56c.28,0,.5.22.5.5s-.22.5-.5.5Z"/><path d="m26.27,15.91h-3.56c-.28,0-.5-.22-.5-.5s.22-.5.5-.5h3.56c.28,0,.5.22.5.5s-.22.5-.5.5Z"/><path d="m35.96,40.21h-4.2c-.28,0-.5-.22-.5-.5s.22-.5.5-.5h4.2c.28,0,.5.22.5.5s-.22.5-.5.5Z"/><path d="m35.96,42.84h-4.2c-.28,0-.5-.22-.5-.5s.22-.5.5-.5h4.2c.28,0,.5.22.5.5s-.22.5-.5.5Z"/><path d="m15.37,27.32s-.06,0-.09,0l-8.05-1.44c-.27-.05-.45-.31-.4-.58.05-.27.31-.45.58-.4l8.05,1.44c.27.05.45.31.4.58-.04.24-.25.41-.49.41Z"/><path d="m14.91,29.9s-.06,0-.09,0l-8.05-1.44c-.27-.05-.45-.31-.4-.58.05-.27.31-.45.58-.4l8.05,1.44c.27.05.45.31.4.58-.04.24-.25.41-.49.41Z"/><path d="m45.76,40.21h-4.2c-.28,0-.5-.22-.5-.5s.22-.5.5-.5h4.2c.28,0,.5.22.5.5s-.22.5-.5.5Z"/><path d="m45.76,42.84h-4.2c-.28,0-.5-.22-.5-.5s.22-.5.5-.5h4.2c.28,0,.5.22.5.5s-.22.5-.5.5Z"/></svg>