<?xml version="1.0" encoding="UTF-8"?><svg id="a" xmlns="http://www.w3.org/2000/svg" viewBox="0 0 20 20"><path d="m16.92,7.12c.28.67.47,1.37.55,2.1h1.52c-.07-.94-.28-1.85-.65-2.71-.36-.86-.85-1.65-1.46-2.35l-1.08,1.08c.46.58.83,1.21,1.11,1.88Z"/><path d="m7.15,3.08c.67-.29,1.38-.48,2.11-.56v-1.5c-.93.07-1.83.28-2.69.64-.86.35-1.65.84-2.35,1.47l1.04,1.06c.58-.44,1.21-.81,1.89-1.1Z"/><path d="m14.76,4.19l1.06-1.08c-.71-.62-1.49-1.11-2.35-1.46-.86-.35-1.76-.56-2.71-.62v1.5c.74.08,1.44.27,2.11.55.67.28,1.3.66,1.89,1.11Z"/><path d="m3.09,7.12c.29-.67.67-1.29,1.12-1.88l-1.06-1.06c-.62.71-1.11,1.49-1.46,2.35-.35.86-.56,1.76-.65,2.69h1.5c.07-.74.25-1.44.54-2.1Z"/><path d="m14.36,16.07c-1.29.94-2.74,1.41-4.35,1.41-1.29,0-2.49-.31-3.59-.94-1.1-.62-2.01-1.48-2.72-2.56h2.06v-1.5H1.01v4.75h1.5v-2.29c.86,1.25,1.95,2.24,3.26,2.96s2.73,1.08,4.24,1.08c1.97,0,3.74-.57,5.31-1.72,1.57-1.15,2.65-2.66,3.25-4.53l-1.46-.33c-.54,1.51-1.46,2.74-2.75,3.68Z"/><polygon points="10.76 13.35 10.76 10.74 13.26 10.74 13.26 9.26 10.76 9.26 10.76 6.65 9.24 6.65 9.24 9.26 6.74 9.26 6.74 10.74 9.24 10.74 9.24 13.35 10.76 13.35"/></svg>