<?xml version="1.0" encoding="utf-8"?>
<!-- Generator: Adobe Illustrator 27.2.0, SVG Export Plug-In . SVG Version: 6.00 Build 0)  -->
<svg version="1.1" id="a" xmlns="http://www.w3.org/2000/svg" xmlns:xlink="http://www.w3.org/1999/xlink" x="0px" y="0px"
	 viewBox="0 0 555 207" style="enable-background:new 0 0 555 207;" xml:space="preserve">
<style type="text/css">
	.st0{fill:#FFFFFF;}
</style>
<g>
	<path class="st0" d="M245.1,91.7h2.8V51.6c0-2.6,0.8-4.7,2.6-6.6c1.5-1.6,3.3-2.4,5.4-2.4c2.2,0,4.1,0.8,5.8,2.5
		c1.5,1.6,2.3,3.6,2.3,6.2v40.4h15.7V51.3c0-2.5,0.8-4.5,2.4-6.2c1.7-1.7,3.5-2.5,5.7-2.5c2.2,0,4,0.8,5.6,2.5
		c1.6,1.7,2.4,3.8,2.4,6.3v40.3h15.6V51.4c0-3.4-0.6-6.6-1.8-9.7c-1.2-3.1-2.9-5.8-5-8.1c-2.2-2.4-4.7-4.2-7.5-5.5
		c-2.9-1.3-5.9-1.9-9.2-1.9c-3.7,0-7.1,0.8-10.2,2.4c-2.1,1.1-4,2.5-5.8,4.1c-1.7-1.7-3.6-3-5.7-4.1c-3.1-1.6-6.5-2.4-10.2-2.4
		c-2.4,0-4.8,0.7-7.3,2c-0.2,0.1-0.5,0.3-0.7,0.4v-1h-15.6v64.1L245.1,91.7L245.1,91.7z"/>
	<path class="st0" d="M386.6,27.6h-2.8v3.9c-1.2-0.9-2.5-1.7-3.9-2.5c-3.5-1.8-7.3-2.7-11.3-2.7c-4.2,0-8.2,0.8-11.9,2.5
		c-3.7,1.7-7,4.1-9.8,7.1c-2.8,3-5,6.6-6.6,10.7c-1.6,4-2.3,8.3-2.3,12.7s0.8,8.7,2.3,12.7c1.6,4,3.8,7.6,6.6,10.6
		c2.8,3,6.1,5.4,9.8,7.1c3.7,1.7,7.7,2.5,11.9,2.5c3.9,0,7.7-1,11.2-3c1.4-0.8,2.7-1.7,3.9-2.7v5.1h15.6V27.6L386.6,27.6L386.6,27.6
		z M383.7,59.4c0,2.3-0.4,4.5-1.2,6.5c-0.8,2.1-1.9,3.8-3.2,5.3c-1.4,1.5-3,2.6-4.8,3.5c-1.8,0.8-3.7,1.2-5.8,1.2
		c-2,0-4-0.4-5.8-1.3c-1.9-0.8-3.5-2-4.9-3.5c-1.4-1.5-2.5-3.3-3.2-5.3c-0.8-2.1-1.2-4.3-1.2-6.5c0-2.3,0.4-4.5,1.2-6.6
		c0.8-2.1,1.9-3.9,3.2-5.4c1.4-1.5,3-2.6,4.9-3.5c1.9-0.8,3.8-1.3,5.8-1.3s3.9,0.4,5.8,1.2c1.8,0.8,3.5,2,4.8,3.5
		c1.4,1.5,2.5,3.3,3.2,5.4C383.3,54.9,383.7,57.1,383.7,59.4L383.7,59.4z"/>
	<path class="st0" d="M439.6,91.7h2.8V53c0-1.3,0.3-2.6,0.8-3.9c0.5-1.3,1.2-2.5,2.1-3.4c1.9-2,4-3,6.5-3c2.5,0,4.7,1,6.5,2.9
		c1.9,2.1,2.9,4.6,2.9,7.4v38.8h15.3V53c0-3.6-0.6-7.1-1.9-10.3c-1.3-3.2-3-6.1-5.2-8.5c-2.3-2.5-5-4.5-8-5.9
		c-3-1.4-6.3-2.1-9.6-2.1c-2.7,0-5.4,0.7-8,2.1c-0.5,0.3-0.9,0.5-1.4,0.8v-1.5h-15.2v64.1L439.6,91.7L439.6,91.7z"/>
	<path class="st0" d="M548.9,26.2h-12.4v39.1c0,3-0.9,5.4-2.9,7.6c-0.8,0.9-1.9,1.7-3.1,2.2c-1.2,0.5-2.3,0.8-3.4,0.8
		c-2.5,0-4.6-1-6.5-3c-1.9-2.1-2.9-4.6-2.9-7.6V26.2h-15.3v39.1c0,3.6,0.6,7.1,1.9,10.3c1.3,3.2,3,6.1,5.2,8.6c2.3,2.5,5,4.5,8,5.9
		c3,1.4,6.3,2.1,9.6,2.1c2.6,0,5.3-0.7,7.9-2c0.5-0.3,1-0.5,1.5-0.8v1.9h15.2V26.2H548.9L548.9,26.2z"/>
	<polygon class="st0" points="275.2,120.1 278.1,120.1 278.1,117.3 278.1,106.5 278.1,103.7 275.2,103.7 235.1,103.7 232.3,103.7 
		232.3,106.5 232.3,186.1 232.3,189 235.1,189 244.6,189 247.4,189 247.4,186.1 247.4,154.6 265.2,154.6 268,154.6 268,151.8 
		268,141 268,138.2 265.2,138.2 247.4,138.2 247.4,120.1 	"/>
	<path class="st0" d="M330.6,132.8c-2.8-3.1-6.2-5.5-9.9-7.2c-3.8-1.7-7.9-2.6-12.1-2.6s-8.1,0.9-11.9,2.6c-3.7,1.7-7,4.1-9.8,7.2
		c-2.8,3-5,6.6-6.6,10.7c-1.6,4.1-2.4,8.4-2.4,12.9s0.8,8.7,2.4,12.7c1.6,4,3.8,7.5,6.6,10.6c2.8,3,6.1,5.5,9.8,7.2
		c3.7,1.8,7.7,2.7,11.9,2.7c4.2,0,8.3-0.9,12.1-2.6c3.8-1.7,7.1-4.2,9.9-7.2c2.8-3,5-6.6,6.6-10.6c1.6-4,2.3-8.2,2.3-12.6
		c0-4.4-0.8-8.8-2.3-12.9C335.6,139.5,333.4,135.9,330.6,132.8L330.6,132.8z M324,156.4c0,2.3-0.4,4.5-1.2,6.5
		c-0.8,2.1-2,3.9-3.4,5.5c-1.3,1.5-3,2.7-4.9,3.6c-1.9,0.9-3.8,1.3-5.9,1.3c-2,0-3.9-0.4-5.7-1.3c-1.8-0.9-3.5-2.1-4.9-3.7
		c-1.5-1.6-2.6-3.4-3.4-5.5c-0.8-2-1.2-4.2-1.2-6.5s0.4-4.5,1.2-6.7c0.8-2.1,2-4,3.4-5.6c3-3.3,6.5-4.8,10.6-4.8
		c2.1,0,4.1,0.4,6,1.3c1.9,0.8,3.5,2,4.8,3.5c1.4,1.6,2.5,3.5,3.3,5.6C323.6,151.9,324,154.2,324,156.4L324,156.4z"/>
	<path class="st0" d="M381.1,124.6c-2.6-1.1-5.3-1.7-8.1-1.7c-3.5,0-6.7,0.8-9.8,2.4l-0.1,0l-0.1,0c-4,2.2-7.1,5.4-9.4,9.5
		c-2.3,4-3.4,8.5-3.4,13.2V189h15.1V148c0-2.4,0.8-4.5,2.4-6.4c1.4-1.6,3-2.4,5.1-2.4c0.9,0,2.1,0.3,3.5,1l1.4,0.7l1.4-0.9l9.1-5.9
		l3.1-2l-2.8-2.5C386.2,127.5,383.6,125.7,381.1,124.6L381.1,124.6z"/>
	<path class="st0" d="M472.7,130.8c-2.2-2.4-4.7-4.2-7.5-5.5c-2.9-1.3-5.9-1.9-9.2-1.9c-3.7,0-7.1,0.8-10.2,2.4
		c-2.1,1.1-4,2.5-5.8,4.1c-1.7-1.7-3.6-3-5.7-4.1c-3.1-1.6-6.5-2.4-10.2-2.4c-2.4,0-4.8,0.7-7.3,2c-0.2,0.1-0.5,0.3-0.7,0.4v-1
		h-15.6V189h15.6v-40.1c0-2.6,0.8-4.7,2.6-6.6c1.5-1.7,3.3-2.4,5.4-2.4c2.2,0,4.1,0.8,5.8,2.5c1.5,1.6,2.3,3.6,2.3,6.2V189h15.7
		v-40.4c0-2.5,0.8-4.5,2.4-6.2c1.7-1.7,3.5-2.5,5.7-2.5c2.2,0,4,0.8,5.6,2.5c1.6,1.7,2.4,3.8,2.4,6.3V189h15.6v-40.3
		c0-3.4-0.6-6.6-1.8-9.7C476.6,135.9,474.9,133.2,472.7,130.8L472.7,130.8z"/>
	<path class="st0" d="M539,124.9h-2.8v4c-1.2-0.9-2.5-1.7-3.9-2.5c-3.5-1.8-7.3-2.7-11.3-2.7c-4.2,0-8.2,0.8-11.9,2.5
		c-3.7,1.7-7,4.1-9.8,7.1c-2.8,3-5,6.6-6.6,10.7c-1.6,4-2.3,8.3-2.3,12.7c0,4.4,0.8,8.7,2.3,12.7c1.6,4,3.8,7.6,6.6,10.6
		c2.8,3,6.1,5.4,9.8,7.1c3.7,1.7,7.7,2.5,11.9,2.5c3.9,0,7.7-1,11.2-3c1.4-0.8,2.7-1.7,3.9-2.7v5.1h15.6v-64.1L539,124.9L539,124.9z
		 M536,156.7c0,2.3-0.4,4.5-1.2,6.5c-0.8,2.1-1.9,3.8-3.2,5.3c-1.4,1.5-2.9,2.6-4.8,3.5c-1.8,0.8-3.7,1.2-5.8,1.2s-4-0.4-5.8-1.3
		c-1.9-0.8-3.5-2-4.9-3.5c-1.4-1.5-2.5-3.3-3.2-5.3c-0.8-2.1-1.2-4.3-1.2-6.5s0.4-4.5,1.2-6.6c0.8-2.1,1.9-3.9,3.2-5.4
		c1.4-1.5,3-2.6,4.9-3.5c1.9-0.8,3.8-1.3,5.8-1.3c2,0,4,0.4,5.8,1.2c1.9,0.8,3.4,2,4.8,3.5c1.4,1.5,2.5,3.3,3.2,5.4
		C535.6,152.2,536,154.4,536,156.7L536,156.7z"/>
</g>
<g>
	<g>
		<polygon class="st0" points="106,3 106,23.1 160.9,58.1 106,94.4 106,114.7 192,57.8 		"/>
		<polygon class="st0" points="89,94.4 34.1,58.1 89,23.1 89,3 3,57.8 89,114.7 		"/>
	</g>
	<polygon class="st0" points="192,120.3 97.5,182.7 3,120.3 3,140.6 97.5,203 192,140.6 	"/>
	<polygon class="st0" points="192,78.9 97.5,141.4 3,78.9 3,99.2 97.5,161.6 192,99.2 	"/>
</g>
</svg>
