<?xml version="1.0" encoding="utf-8"?>
<!-- Generator: Adobe Illustrator 27.2.0, SVG Export Plug-In . SVG Version: 6.00 Build 0)  -->
<svg version="1.1" id="a" xmlns="http://www.w3.org/2000/svg" xmlns:xlink="http://www.w3.org/1999/xlink" x="0px" y="0px"
	 viewBox="0 0 555 207" style="enable-background:new 0 0 555 207;" xml:space="preserve">
<g>
	<path d="M244.1,91.5h2.8V51.4c0-2.6,0.8-4.7,2.6-6.6c1.5-1.6,3.3-2.4,5.4-2.4c2.2,0,4.1,0.8,5.8,2.5c1.5,1.6,2.3,3.6,2.3,6.2v40.4
		h15.7V51.1c0-2.5,0.8-4.5,2.4-6.2c1.7-1.7,3.5-2.5,5.7-2.5c2.2,0,4,0.8,5.6,2.5c1.6,1.7,2.4,3.8,2.4,6.3v40.3h15.6V51.2
		c0-3.4-0.6-6.6-1.8-9.7c-1.2-3.1-2.9-5.8-5-8.1c-2.2-2.4-4.7-4.2-7.5-5.5c-2.9-1.3-5.9-1.9-9.2-1.9c-3.7,0-7.1,0.8-10.2,2.4
		c-2.1,1.1-4,2.5-5.8,4.1c-1.7-1.7-3.6-3-5.7-4.1c-3.1-1.6-6.5-2.4-10.2-2.4c-2.4,0-4.8,0.7-7.3,2c-0.2,0.1-0.5,0.3-0.7,0.4v-1
		h-15.6v64.1L244.1,91.5L244.1,91.5z"/>
	<path d="M385.6,27.4h-2.8v3.9c-1.2-0.9-2.5-1.7-3.9-2.5c-3.5-1.8-7.3-2.7-11.3-2.7c-4.2,0-8.2,0.8-11.9,2.5c-3.7,1.7-7,4.1-9.8,7.1
		c-2.8,3-5,6.6-6.6,10.7c-1.6,4-2.3,8.3-2.3,12.7s0.8,8.7,2.3,12.7c1.6,4,3.8,7.6,6.6,10.6c2.8,3,6.1,5.4,9.8,7.1
		c3.7,1.7,7.7,2.5,11.9,2.5c3.9,0,7.7-1,11.2-3c1.4-0.8,2.7-1.7,3.9-2.7v5.1h15.6V27.4L385.6,27.4L385.6,27.4z M382.7,59.2
		c0,2.3-0.4,4.5-1.2,6.5c-0.8,2.1-1.9,3.8-3.2,5.3c-1.4,1.5-3,2.6-4.8,3.5c-1.8,0.8-3.7,1.2-5.8,1.2c-2,0-4-0.4-5.8-1.3
		c-1.9-0.8-3.5-2-4.9-3.5c-1.4-1.5-2.5-3.3-3.2-5.3c-0.8-2.1-1.2-4.3-1.2-6.5c0-2.3,0.4-4.5,1.2-6.6c0.8-2.1,1.9-3.9,3.2-5.4
		c1.4-1.5,3-2.6,4.9-3.5c1.9-0.8,3.8-1.3,5.8-1.3s3.9,0.4,5.8,1.2c1.8,0.8,3.5,2,4.8,3.5c1.4,1.5,2.5,3.3,3.2,5.4
		C382.3,54.7,382.7,56.9,382.7,59.2L382.7,59.2z"/>
	<path d="M438.6,91.5h2.8V52.8c0-1.3,0.3-2.6,0.8-3.9c0.5-1.3,1.2-2.5,2.1-3.4c1.9-2,4-3,6.5-3c2.5,0,4.7,1,6.5,2.9
		c1.9,2.1,2.9,4.6,2.9,7.4v38.8h15.3V52.8c0-3.6-0.6-7.1-1.9-10.3c-1.3-3.2-3-6.1-5.2-8.5c-2.3-2.5-5-4.5-8-5.9
		c-3-1.4-6.3-2.1-9.6-2.1c-2.7,0-5.4,0.7-8,2.1c-0.5,0.3-0.9,0.5-1.4,0.8v-1.5h-15.2v64.1L438.6,91.5L438.6,91.5z"/>
	<path d="M547.9,26h-12.4v39.1c0,3-0.9,5.4-2.9,7.6c-0.8,0.9-1.9,1.7-3.1,2.2c-1.2,0.5-2.3,0.8-3.4,0.8c-2.5,0-4.6-1-6.5-3
		c-1.9-2.1-2.9-4.6-2.9-7.6V26h-15.3v39.1c0,3.6,0.6,7.1,1.9,10.3c1.3,3.2,3,6.1,5.2,8.6c2.3,2.5,5,4.5,8,5.9c3,1.4,6.3,2.1,9.6,2.1
		c2.6,0,5.3-0.7,7.9-2c0.5-0.3,1-0.5,1.5-0.8v1.9h15.2V26H547.9L547.9,26z"/>
	<polygon points="274.2,119.9 277.1,119.9 277.1,117.1 277.1,106.3 277.1,103.5 274.2,103.5 234.1,103.5 231.3,103.5 231.3,106.3 
		231.3,185.9 231.3,188.8 234.1,188.8 243.6,188.8 246.4,188.8 246.4,185.9 246.4,154.4 264.2,154.4 267,154.4 267,151.6 267,140.8 
		267,138 264.2,138 246.4,138 246.4,119.9 	"/>
	<path d="M329.6,132.6c-2.8-3.1-6.2-5.5-9.9-7.2c-3.8-1.7-7.9-2.6-12.1-2.6s-8.1,0.9-11.9,2.6c-3.7,1.7-7,4.1-9.8,7.2
		c-2.8,3-5,6.6-6.6,10.7c-1.6,4.1-2.4,8.4-2.4,12.9s0.8,8.7,2.4,12.7c1.6,4,3.8,7.5,6.6,10.6c2.8,3,6.1,5.5,9.8,7.2
		c3.7,1.8,7.7,2.7,11.9,2.7c4.2,0,8.3-0.9,12.1-2.6c3.8-1.7,7.1-4.2,9.9-7.2c2.8-3,5-6.6,6.6-10.6c1.6-4,2.3-8.2,2.3-12.6
		s-0.8-8.8-2.3-12.9C334.6,139.3,332.4,135.7,329.6,132.6L329.6,132.6z M323,156.2c0,2.3-0.4,4.5-1.2,6.5c-0.8,2.1-2,3.9-3.4,5.5
		c-1.3,1.5-3,2.7-4.9,3.6c-1.9,0.9-3.8,1.3-5.9,1.3c-2,0-3.9-0.4-5.7-1.3c-1.8-0.9-3.5-2.1-4.9-3.7c-1.5-1.6-2.6-3.4-3.4-5.5
		c-0.8-2-1.2-4.2-1.2-6.5s0.4-4.5,1.2-6.7c0.8-2.1,2-4,3.4-5.6c3-3.3,6.5-4.8,10.6-4.8c2.1,0,4.1,0.4,6,1.3c1.9,0.8,3.5,2,4.8,3.5
		c1.4,1.6,2.5,3.5,3.3,5.6C322.6,151.7,323,154,323,156.2L323,156.2z"/>
	<path d="M380.1,124.4c-2.6-1.1-5.3-1.7-8.1-1.7c-3.5,0-6.7,0.8-9.8,2.4l-0.1,0l-0.1,0c-4,2.2-7.1,5.4-9.4,9.5
		c-2.3,4-3.4,8.5-3.4,13.2v40.9h15.1v-40.9c0-2.4,0.8-4.5,2.4-6.4c1.4-1.6,3-2.4,5.1-2.4c0.9,0,2.1,0.3,3.5,1l1.4,0.7l1.4-0.9
		l9.1-5.9l3.1-2l-2.8-2.5C385.2,127.3,382.6,125.5,380.1,124.4L380.1,124.4z"/>
	<path d="M471.7,130.6c-2.2-2.4-4.7-4.2-7.5-5.5c-2.9-1.3-5.9-1.9-9.2-1.9c-3.7,0-7.1,0.8-10.2,2.4c-2.1,1.1-4,2.5-5.8,4.1
		c-1.7-1.7-3.6-3-5.7-4.1c-3.1-1.6-6.5-2.4-10.2-2.4c-2.4,0-4.8,0.7-7.3,2c-0.2,0.1-0.5,0.3-0.7,0.4v-1h-15.6v64.1h15.6v-40.1
		c0-2.6,0.8-4.7,2.6-6.6c1.5-1.7,3.3-2.4,5.4-2.4c2.2,0,4.1,0.8,5.8,2.5c1.5,1.6,2.3,3.6,2.3,6.2v40.4h15.7v-40.4
		c0-2.5,0.8-4.5,2.4-6.2c1.7-1.7,3.5-2.5,5.7-2.5c2.2,0,4,0.8,5.6,2.5c1.6,1.7,2.4,3.8,2.4,6.3v40.3h15.6v-40.3
		c0-3.4-0.6-6.6-1.8-9.7C475.6,135.7,473.9,133,471.7,130.6L471.7,130.6z"/>
	<path d="M538,124.7h-2.8v4c-1.2-0.9-2.5-1.7-3.9-2.5c-3.5-1.8-7.3-2.7-11.3-2.7c-4.2,0-8.2,0.8-11.9,2.5c-3.7,1.7-7,4.1-9.8,7.1
		c-2.8,3-5,6.6-6.6,10.7c-1.6,4-2.3,8.3-2.3,12.7c0,4.4,0.8,8.7,2.3,12.7c1.6,4,3.8,7.6,6.6,10.6c2.8,3,6.1,5.4,9.8,7.1
		c3.7,1.7,7.7,2.5,11.9,2.5c3.9,0,7.7-1,11.2-3c1.4-0.8,2.7-1.7,3.9-2.7v5.1h15.6v-64.1L538,124.7L538,124.7z M535,156.5
		c0,2.3-0.4,4.5-1.2,6.5c-0.8,2.1-1.9,3.8-3.2,5.3c-1.4,1.5-2.9,2.6-4.8,3.5c-1.8,0.8-3.7,1.2-5.8,1.2s-4-0.4-5.8-1.3
		c-1.9-0.8-3.5-2-4.9-3.5c-1.4-1.5-2.5-3.3-3.2-5.3c-0.8-2.1-1.2-4.3-1.2-6.5s0.4-4.5,1.2-6.6c0.8-2.1,1.9-3.9,3.2-5.4
		c1.4-1.5,3-2.6,4.9-3.5c1.9-0.8,3.8-1.3,5.8-1.3c2,0,4,0.4,5.8,1.2c1.9,0.8,3.4,2,4.8,3.5c1.4,1.5,2.5,3.3,3.2,5.4
		C534.6,152,535,154.2,535,156.5L535,156.5z"/>
</g>
<g>
	<g>
		<polygon points="105,2.8 105,22.9 159.9,57.9 105,94.2 105,114.5 191,57.6 		"/>
		<polygon points="88,94.2 33.1,57.9 88,22.9 88,2.8 2,57.6 88,114.5 		"/>
	</g>
	<polygon points="191,120.1 96.5,182.5 2,120.1 2,140.4 96.5,202.8 191,140.4 	"/>
	<polygon points="191,78.7 96.5,141.2 2,78.7 2,99 96.5,161.4 191,99 	"/>
</g>
</svg>
