<svg clip-rule="evenodd" fill-rule="evenodd" stroke-linejoin="round" stroke-miterlimit="1.41421" viewBox="0 0 486 536" xmlns="http://www.w3.org/2000/svg"><g fill-rule="nonzero"><path d="m249 14.25 27 48.75 142.725 85.8-.525 162.9 26.55 48.3v-201.75l-21.075-36.525-174.675-107.475z" fill="#c9b23e"/><path d="m249 14.25 24.75-14.25 175.5 107.25-25.5 14.25z" fill="#f3d448"/><path d="m470.25 145.5-21-38.25-25.5 14.25 21 36.75z" fill="#ffe14d"/><path d="m470.25 345.75v-200.25l-25.5 12.75v201.75z" fill="#e5c944"/><path d="m84.75 178.5h109.875v33.15h-36.825v101.1h-36.15v-101.1h-36.9zm126.75 0h96.975v28.65h-60.675v21.375h56.325v27.375h-56.325v26.475h62.475v30.375h-98.775zm119.25 0h39.225v134.25h-39.225z"/><path d="m0 150v201.75l21.75 37.5 174.75 106.5-27-48-142.5-87v-162.75z" fill="#c9b23e"/><path d="m24.75 135.75 27 49.5-24.75 12.75-27-48z" fill="#ffe14d"/><path d="m51.75 347.25v-162l-24.75 12.75v162.75z" fill="#e5c944"/><path d="m194.25 432.75-142.5-85.5-24.75 13.5 142.5 87z" fill="#f3d448"/><path d="m221.25 480.75-27-48-24.75 15 27 48z" fill="#ffe14d"/><path d="m212.475 519.825 11.85-6.75v4.35l-3.975 2.25v13.425l-3.825 2.25v-13.425l-3.975 2.25zm13.65-7.725 10.275-6.075v3.825l-6.45 3.75v2.85l6.075-3.525v3.675l-6.075 3.375.15 3.525 6.6-3.825v3.975l-10.575 6.225zm20.475-11.85 4.2-2.4-3.975 10.875 4.425 6.6-4.425 2.55-2.55-4.275-2.325 7.05-4.425 2.55 4.425-11.7-4.125-6.3 4.35-2.4 2.25 4.2zm4.875-2.85 11.85-6.9v4.35l-3.9 2.325v13.5l-3.975 2.1v-13.35l-3.975 2.4zm19.5-11.25 10.275-5.925v3.675l-6.45 3.825v2.775l6-3.525v3.675l-6 3.525.075 3.525 6.675-3.975v4.125l-10.575 6.075zm16.35-1.425v9.75l-3.675 2.1v-17.775l3.675-2.1 4.65 7.2v-9.9l3.675-2.1v17.775l-3.675 2.1zm16.875-17.925c1.575-.9 2.85-1.2 3.675-.825.975.375 1.725 1.425 2.1 3l-3.525 3.075c0-.45-.15-.75-.225-.975-.3-.3-.6-.45-.9-.525-.225 0-.675.075-.975.3-.825.45-1.575 1.35-1.95 2.625-.45.975-.6 2.25-.6 3.825 0 1.95.15 3.15.6 3.675.375.45 1.125.525 1.8.075.75-.45 1.275-1.05 1.725-1.875.375-.825.525-1.8.825-3l3.375-.525c-.3 1.5-.525 2.775-1.125 3.975-.375 1.2-.975 2.25-1.8 3.15-.75.825-1.575 1.65-2.7 2.25-1.425.825-2.55 1.2-3.375 1.125s-1.575-.6-2.25-1.725c-.6-.975-.975-2.625-.975-4.875 0-2.925.525-5.475 1.65-7.725 1.125-2.175 2.7-3.9 4.65-5.025zm18.6-8.325c1.125.9 1.725 2.775 1.725 5.7 0 2.025-.3 3.9-.675 5.475-.6 1.65-1.275 3.075-2.175 4.35-.975 1.275-2.1 2.325-3.525 3.15-1.35.825-2.475 1.125-3.525 1.05-.975-.075-1.65-.675-2.25-1.725-.525-1.05-.825-2.625-.825-4.725 0-2.85.6-5.4 1.725-7.725 1.125-2.25 2.625-3.975 4.65-5.175 2.1-1.2 3.75-1.35 4.875-.375zm-2.775 12.375c.375-1.05.525-2.55.525-4.5 0-1.725-.15-2.775-.675-3.3-.45-.525-1.125-.525-1.95 0-.75.45-1.275 1.2-1.875 2.25-.375 1.05-.675 2.475-.675 4.275s.3 2.925.675 3.45c.6.525 1.125.525 2.025.075.825-.45 1.35-1.2 1.95-2.25m17.925-17.85c.15.975.225 2.1.225 3.3 0 1.875-.075 3.45-.375 4.65-.3 1.275-.75 2.4-1.275 3.375-.6 1.05-1.125 1.875-1.725 2.475-.825.75-1.65 1.425-2.4 1.8l-5.625 3.3-.15-17.775 5.775-3.3c1.125-.675 2.175-.975 2.7-.975.675.075 1.425.375 1.8.9.45.525.75 1.275 1.05 2.25zm-3.975 8.925c.3-.75.3-1.8.3-3.225 0-1.95-.15-3.075-.6-3.525-.375-.45-1.125-.375-2.1.15l-.975.6v9.75l.975-.6c.675-.45 1.275-.9 1.725-1.35.225-.45.525-1.05.675-1.8m6.357-15.828 3.807-2.256.141 17.766-3.948 2.256zm10.293 1.974.141 9.87-3.666 2.115-.141-17.907 3.666-1.974 4.794 7.05-.141-9.87 3.666-2.115.141 17.907-3.666 1.974zm17.325-18.096c1.425-.825 2.4-1.2 3.075-1.275.75 0 1.275.225 1.725.675.6.45.825 1.275 1.125 2.25l-3.825 3.075c-.15-.525-.375-.9-.675-1.05-.45-.15-.825 0-1.425.3-.825.45-1.575 1.275-2.1 2.4-.45 1.125-.675 2.625-.675 4.425 0 1.95.225 3.15.675 3.675.525.525 1.275.525 2.25 0 .45-.225.825-.6 1.125-.975.45-.375.825-.975 1.425-1.65v-1.725l-2.7 1.5v-3.675l6.075-3.45v7.575c-1.125 1.725-2.1 3.075-3 3.975-.975.9-1.95 1.725-3.225 2.4-1.425.9-2.625 1.2-3.525 1.05-.975-.225-1.65-.825-2.25-1.95-.525-1.125-.675-2.625-.675-4.5-.15-1.875.15-3.75.675-5.475.6-1.8 1.425-3.375 2.55-4.725.825-1.05 1.95-2.025 3.375-2.85zm14.25-8.1 3.825-2.25.15 17.85-3.975 2.1zm10.425 2.1v9.75l-3.675 2.1-.15-17.775 3.675-2.1 4.8 7.05v-9.75l3.675-2.1v17.775l-3.675 2.1zm11.025-14.55 3.825-2.1.15 17.775-3.975 2.25zm5.775-3.225 11.85-6.9v4.5l-3.975 2.25v13.425l-3.9 2.25v-13.425l-3.975 2.25zm13.65-7.875 3.975-2.25v17.7l-3.825 2.325zm18.225-10.575 11.85-6.825v4.425l-3.975 2.25v13.35l-3.825 2.25v-13.35l-4.05 2.25zm-3.675 2.325 4.8 15-4.125 2.4-.525-2.625-4.5 2.55-.6 3.3-3.975 2.325 4.725-20.55zm-3.525 12.975 2.85-1.575-1.425-5.55zm21-23.25 3.825-2.25.15 17.775-3.975 2.25zm10.125 11.85-4.725-14.925 4.05-2.4 3 11.175 2.625-14.4 3.975-2.25-4.65 20.4zm10.2-23.55 10.425-6.075v3.825l-6.525 3.825v2.85l5.925-3.525v3.6l-5.925 3.45v3.525l6.675-3.825v4.05l-10.575 6.075z"/></g></svg>