<?xml version="1.0" encoding="UTF-8"?><svg id="a" xmlns="http://www.w3.org/2000/svg" viewBox="0 0 50 50"><path d="m26.66,17.7c1.96-.59,3.4-2.4,3.4-4.55,0-2.63-2.14-4.77-4.77-4.77s-4.77,2.14-4.77,4.77c0,2.15,1.44,3.96,3.4,4.55-4.55.67-8.06,4.58-8.06,9.32v16.3c0,.28.22.5.5.5s.5-.22.5-.5v-16.3c0-4.65,3.78-8.43,8.43-8.43s8.43,3.78,8.43,8.43v16.3c0,.28.22.5.5.5s.5-.22.5-.5v-16.3c0-4.73-3.51-8.65-8.06-9.32Zm-5.14-4.55c0-2.08,1.69-3.77,3.77-3.77s3.77,1.69,3.77,3.77-1.69,3.77-3.77,3.77-3.77-1.69-3.77-3.77Z"/><path d="m40.23,17.62c1.96-.59,3.4-2.4,3.4-4.55,0-2.63-2.14-4.77-4.77-4.77s-4.77,2.14-4.77,4.77c0,2.15,1.43,3.94,3.38,4.54-1.5.22-2.92.8-4.17,1.71-.22.16-.27.48-.11.7.16.22.48.27.7.11,1.45-1.06,3.17-1.62,4.97-1.62,4.65,0,8.43,3.78,8.43,8.43v10.3c0,.28.22.5.5.5s.5-.22.5-.5v-10.3c0-4.73-3.51-8.65-8.06-9.32Zm-5.14-4.55c0-2.08,1.69-3.77,3.77-3.77s3.77,1.69,3.77,3.77-1.69,3.77-3.77,3.77-3.77-1.69-3.77-3.77Z"/><path d="m16.96,20.43c.16-.22.11-.54-.11-.7-1.24-.91-2.66-1.48-4.17-1.71,1.95-.6,3.38-2.4,3.38-4.54,0-2.63-2.14-4.77-4.77-4.77s-4.77,2.14-4.77,4.77c0,2.15,1.44,3.96,3.4,4.55-4.55.67-8.06,4.58-8.06,9.32v10.3c0,.28.22.5.5.5s.5-.22.5-.5v-10.3c0-4.65,3.78-8.43,8.43-8.43,1.8,0,3.52.56,4.97,1.62.22.16.54.12.7-.11Zm-9.44-6.95c0-2.08,1.69-3.77,3.77-3.77s3.77,1.69,3.77,3.77-1.69,3.77-3.77,3.77-3.77-1.69-3.77-3.77Z"/></svg>